PathFileType	4	(X/Y/Z)	C:\Users\WrightLab\Desktop\Jo\P5V19.trc
DataRate	CameraRate	NumFrames	NumMarkers	Units	OrigDataRate	OrigDataStartFrame	OrigNumFrames
100.00	100.00	       89	19	mm	100.00	617	       705
Frame#	Time	Headset_Front			Headset_Back			Headset_Left			Headset_Right			Left_Shoulder			Right_Shoulder			Sternum			C7			Left Elbow			Right Elbow			Left Wrist			Right Wrist			Left ASIS			Right ASIS			S2			Left Knee			Right Knee			Left Ankle			Right Ankle			
		X1	Y1	Z1	X2	Y2	Z2	X3	Y3	Z3	X4	Y4	Z4	X5	Y5	Z5	X6	Y6	Z6	X7	Y7	Z7	X8	Y8	Z8	X9	Y9	Z9	X10	Y10	Z10	X11	Y11	Z11	X12	Y12	Z12	X13	Y13	Z13	X14	Y14	Z14	X15	Y15	Z15	X16	Y16	Z16	X17	Y17	Z17	X18	Y18	Z18	X19	Y19	Z19	

617	6.160																																					-246.45598	981.63660	1687.67468							-281.70129	539.90759	1703.57458										
618	6.170																																					-246.79477	981.52441	1688.10779							-285.06448	539.48517	1706.56348										
619	6.180																																					-247.18445	981.35284	1688.60669							-287.46530	539.67084	1711.60413										
620	6.190																																					-247.65845	981.18396	1689.21289							-289.93570	539.16705	1715.33020										
621	6.200																																					-248.34097	981.02179	1690.08423							-292.43137	539.63782	1717.44385										
622	6.210																																					-248.91096	980.64484	1693.36499							-294.23282	541.40070	1718.37646										
623	6.220																																					-249.28944	980.63544	1695.62427							-296.56122	542.75342	1721.00024										
624	6.230																																					-249.80508	981.22614	1696.50122							-298.02515	542.80341	1725.93311										
625	6.240																																					-250.13686	981.44135	1696.91956							-299.70053	543.47485	1728.21362										
626	6.250																																					-250.46826	981.63416	1701.90283							-301.24921	545.04291	1729.34436										
627	6.260																																					-250.89362	981.84851	1702.44116							-302.36749	544.71442	1731.84045										
628	6.270																																					-251.19380	982.16638	1702.81763							-303.59348	545.96332	1734.90112										
629	6.280																																					-251.62332	982.47937	1703.35876							-304.96222	546.11859	1738.01428										
630	6.290																																					-252.18561	983.04492	1708.63770							-306.33524	545.89832	1740.44666										
631	6.300																																					-253.02843	983.26624	1709.70801							-307.59335	545.87146	1743.35046										
632	6.310																																					-253.73553	983.50867	1715.18701							-309.64185	547.29443	1746.88477										
633	6.320																																					-254.80952	983.67462	1716.55457							-310.78506	547.68134	1749.57544										
634	6.330																																					-255.77333	984.85022	1720.28967							-312.56186	547.24213	1754.76843										
635	6.340																																					-256.92377	985.90741	1722.52527							-314.75916	548.90082	1758.50818										
636	6.350																																					-257.89236	985.81604	1727.25366							-315.51675	549.56317	1760.34888										
637	6.360																																					-258.93494	986.53851	1731.42664							-316.83978	550.48480	1766.23218										
638	6.370																																					-260.20013	988.14624	1733.48230							-317.32654	551.74066	1770.39917										
639	6.380																																					-260.67294	987.31958	1739.99243							-318.38232	553.51294	1775.11035										
640	6.390																																					-261.42520	988.29773	1743.79895							-319.44302	554.83929	1778.17395										
641	6.400																																					-262.53668	989.79028	1745.66504							-320.18845	555.94348	1782.69324										
642	6.410																																					-263.58691	990.15253	1751.62939							-321.02356	556.33179	1786.45374										
643	6.420																																					-264.51691	990.07202	1756.33948							-322.31659	556.92908	1789.05627										
644	6.430																																					-265.19382	991.23346	1758.29883							-323.53564	557.38123	1796.27234										
645	6.440																																					-266.15390	990.98163	1762.13000							-324.87988	557.66010	1800.21594										
646	6.450																																					-267.05099	990.29126	1768.49170							-325.97952	556.93903	1806.43933										
647	6.460																																														-327.85071	557.11212	1812.34009										
648	6.470																																														-329.51474	556.95642	1816.09656										
649	6.480																																														-331.41153	556.09784	1822.30383										
650	6.490																																														-333.02347	555.83026	1827.79297										
651	6.500																																														-335.25778	556.62744	1833.24829										
652	6.510																																														-336.99042	556.65509	1839.85059										
653	6.520																																														-338.33759	556.24127	1843.99817										
654	6.530																																														-340.00406	556.86536	1849.11841										
655	6.540																																														-341.54224	556.89258	1855.55566										
656	6.550																																														-342.76447	557.27319	1861.95044										
657	6.560																																														-343.89059	557.59076	1868.12964										
658	6.570																																														-345.31265	557.77332	1873.21313										
659	6.580																																														-346.59753	557.89740	1877.13977										
660	6.590																																														-347.59003	558.27765	1885.73230										
661	6.600																																														-348.49472	558.41205	1889.39355										
662	6.610																																														-349.31879	558.78357	1895.05103										
663	6.620																																														-349.47296	558.26190	1900.46045										
664	6.630																																														-348.88245	557.95807	1906.86487										
665	6.640																																														-348.72083	557.64874	1911.50671										
666	6.650																																														-348.09302	557.85535	1915.43237										
667	6.660																																														-346.98209	556.31104	1922.06055										
668	6.670																																														-346.59622	556.42010	1923.78577										
669	6.680																																														-346.26212	555.91553	1927.84351										
670	6.690																																														-345.26996	555.18640	1931.72546										
671	6.700																																														-344.68039	554.15479	1935.48804										
672	6.710																																														-343.74783	553.12341	1939.82568										
673	6.720																																														-343.03580	552.57208	1944.09155										
674	6.730																																														-342.34509	551.67676	1949.08203										
675	6.740																																														-342.01508	551.89349	1951.39502										
676	6.750																																														-342.01169	551.19409	1956.47412										
677	6.760																																														-342.12527	550.42511	1960.54761										
678	6.770																																														-342.29938	549.54443	1964.71704										
679	6.780																																														-342.71396	548.29681	1969.31958										
680	6.790																																																										
681	6.800																																																										
682	6.810																																																										
683	6.820																																																										
684	6.830																																																										
685	6.840																																																										
686	6.850																																																										
687	6.860																																																										
688	6.870																																																										
689	6.880																																																										
690	6.890																																																										
691	6.900																																																										
692	6.910																																																										
693	6.920																																																										
694	6.930																																																										
695	6.940																																																										
696	6.950																																																										
697	6.960																																																										
698	6.970																																																										
699	6.980																																																										
700	6.990																																																										
701	7.000																																																										
702	7.010																																																										
703	7.020																																																										
704	7.030																																																										
705	7.040																																																										
